<mxfile host="app.diagrams.net" agent="Mozilla/5.0 (Macintosh; Intel Mac OS X 10_15_7) AppleWebKit/537.36 (KHTML, like Gecko) Chrome/129.0.0.0 Safari/537.36" version="24.7.17">
  <diagram name="Page-1" id="ZWHEfGFO3fVckML94Ghl">
    <mxGraphModel dx="994" dy="628" grid="1" gridSize="10" guides="1" tooltips="1" connect="1" arrows="1" fold="1" page="1" pageScale="1" pageWidth="850" pageHeight="1100" background="none" math="0" shadow="0">
      <root>
        <mxCell id="0" />
        <mxCell id="1" parent="0" />
        <mxCell id="Pz3ju6JUrsaKP-L_kg8Y-3" value="" style="rounded=0;orthogonalLoop=1;jettySize=auto;html=1;exitX=0.5;exitY=1;exitDx=0;exitDy=0;entryX=0.5;entryY=0;entryDx=0;entryDy=0;strokeColor=#000000;" edge="1" parent="1" source="Pz3ju6JUrsaKP-L_kg8Y-1" target="Pz3ju6JUrsaKP-L_kg8Y-2">
          <mxGeometry relative="1" as="geometry" />
        </mxCell>
        <mxCell id="Pz3ju6JUrsaKP-L_kg8Y-7" style="rounded=0;orthogonalLoop=1;jettySize=auto;html=1;entryX=0.5;entryY=0;entryDx=0;entryDy=0;exitX=0.5;exitY=1;exitDx=0;exitDy=0;strokeColor=#000000;" edge="1" parent="1" source="Pz3ju6JUrsaKP-L_kg8Y-1" target="Pz3ju6JUrsaKP-L_kg8Y-4">
          <mxGeometry relative="1" as="geometry" />
        </mxCell>
        <mxCell id="Pz3ju6JUrsaKP-L_kg8Y-1" value="TRACKING" style="rounded=0;whiteSpace=wrap;html=1;fillColor=#FFFFFF;strokeColor=#000000;" vertex="1" parent="1">
          <mxGeometry x="360" y="160" width="120" height="60" as="geometry" />
        </mxCell>
        <mxCell id="Pz3ju6JUrsaKP-L_kg8Y-5" value="" style="edgeStyle=orthogonalEdgeStyle;rounded=0;orthogonalLoop=1;jettySize=auto;html=1;strokeColor=#000000;" edge="1" parent="1" source="Pz3ju6JUrsaKP-L_kg8Y-2" target="Pz3ju6JUrsaKP-L_kg8Y-4">
          <mxGeometry relative="1" as="geometry" />
        </mxCell>
        <mxCell id="Pz3ju6JUrsaKP-L_kg8Y-8" style="rounded=0;orthogonalLoop=1;jettySize=auto;html=1;exitX=0.5;exitY=0;exitDx=0;exitDy=0;strokeColor=#000000;" edge="1" parent="1" source="Pz3ju6JUrsaKP-L_kg8Y-2">
          <mxGeometry relative="1" as="geometry">
            <mxPoint x="420" y="220" as="targetPoint" />
          </mxGeometry>
        </mxCell>
        <mxCell id="Pz3ju6JUrsaKP-L_kg8Y-2" value="PAUSED" style="rounded=0;whiteSpace=wrap;html=1;fillColor=#FFFFFF;strokeColor=#000000;" vertex="1" parent="1">
          <mxGeometry x="260" y="320" width="120" height="60" as="geometry" />
        </mxCell>
        <mxCell id="Pz3ju6JUrsaKP-L_kg8Y-4" value="STOPPED" style="rounded=0;whiteSpace=wrap;html=1;fillColor=#FFFFFF;strokeColor=#000000;" vertex="1" parent="1">
          <mxGeometry x="460" y="320" width="120" height="60" as="geometry" />
        </mxCell>
      </root>
    </mxGraphModel>
  </diagram>
</mxfile>
